Coordinates
version=1
nRows=21
nColumns=22
inDegrees=yes

Units are S.I. units (second, meters, Newtons, ...)
If the header above contains a line with 'inDegrees', this indicates whether rotational values are in degrees (yes) or radians (no).

endheader
time	pelvis_tilt	pelvis_list	pelvis_rotation	pelvis_tx	pelvis_ty	pelvis_tz	hip_flexion_r	hip_adduction_r	hip_rotation_r	knee_angle_r	ankle_angle_r	subtalar_angle_r	hip_flexion_l	hip_adduction_l	hip_rotation_l	knee_angle_l	ankle_angle_l	subtalar_angle_l	lumbar_extension	lumbar_bending	lumbar_rotation
      0.95000000	      4.21622676	     -5.70242362	     32.06688199	     -0.74682926	      1.00991604	      0.48937193	     -1.72972675	      9.68697842	     -7.98196998	    -14.21204661	     13.47673367	     -0.83923812	     24.02230529	     -8.71685266	     -7.62130529	    -46.62795054	     11.55035818	     -3.96290952	    -16.05018028	      6.76243414	      7.80308627
      0.96000000	      4.30542906	     -5.62233425	     32.53681385	     -0.74156679	      1.00953267	      0.48619473	     -2.45962711	      9.75865274	     -8.29527432	    -13.76842355	     13.60734233	     -0.73072627	     24.36824284	     -8.56249284	     -8.41239713	    -44.89135748	     11.53114626	     -3.74856751	    -16.19168382	      6.74763036	      7.96250559
      0.97000000	      4.37027579	     -5.55645112	     32.98474903	     -0.73627968	      1.00903610	      0.48294277	     -3.14996612	      9.83177285	     -8.59867523	    -13.35185384	     13.72880701	     -0.63122236	     24.69500804	     -8.38397678	     -9.21910831	    -43.08801141	     11.43277058	     -3.48057705	    -16.29714775	      6.72611746	      8.13686126
      0.98000000	      4.47579281	     -5.49620448	     33.41832006	     -0.73095489	      1.00849444	      0.47960294	     -3.87941822	      9.93788916	     -8.87945771	    -12.93652824	     13.86183435	     -0.50902400	     24.95365673	     -8.23014967	    -10.07796235	    -41.25384605	     11.29011805	     -3.08386824	    -16.43882209	      6.73768756	      8.28668594
      0.99000000	      4.54987042	     -5.45266272	     33.83627256	     -0.72562179	      1.00781858	      0.47618375	     -4.55681674	     10.04125693	     -9.15893170	    -12.55497371	     13.98929250	     -0.40964779	     25.21113356	     -8.04482352	    -10.93034576	    -39.37814701	     11.06549360	     -2.65482010	    -16.53741214	      6.74377023	      8.44575960
      1.00000000	      4.62535870	     -5.42191204	     34.24157972	     -0.72026707	      1.00704888	      0.47268330	     -5.22289527	     10.15837120	     -9.43002308	    -12.19137446	     14.11361373	     -0.31994774	     25.44186061	     -7.85243386	    -11.78677626	    -37.48153286	     10.78093587	     -2.18298483	    -16.63013387	      6.76101851	      8.60211631
      1.01000000	      4.70738938	     -5.41075111	     34.63726921	     -0.71489108	      1.00618653	      0.46910377	     -5.87805792	     10.29803070	     -9.69127243	    -11.84444778	     14.22639693	     -0.22947922	     25.65080741	     -7.66214098	    -12.63474012	    -35.57950799	     10.45560914	     -1.67397822	    -16.71721494	      6.79804471	      8.75800885
      1.02000000	      4.79454673	     -5.42421164	     35.02555347	     -0.70947426	      1.00521758	      0.46544962	     -6.51711729	     10.46421426	     -9.94900395	    -11.51655990	     14.34039381	     -0.13160405	     25.84876229	     -7.48340368	    -13.47865722	    -33.69340064	     10.11995897	     -1.15599309	    -16.79001374	      6.85549952	      8.90855017
      1.03000000	      4.88174503	     -5.45313254	     35.39751999	     -0.70403119	      1.00416029	      0.46171335	     -7.13169911	     10.64027634	    -10.20144520	    -11.22564878	     14.46785498	     -0.01961314	     26.02602752	     -7.30336738	    -14.31103142	    -31.81908078	      9.79024821	     -0.65069056	    -16.85155821	      6.92244860	      9.07024720
      1.04000000	      4.97007533	     -5.50916498	     35.75546347	     -0.69855319	      1.00299997	      0.45789823	     -7.71746789	     10.83680925	    -10.43818059	    -10.96702398	     14.59163348	      0.11797084	     26.20167203	     -7.14349539	    -15.14564203	    -29.99022437	      9.50664490	     -0.17099634	    -16.89532704	      7.00932826	      9.22652272
      1.05000000	      5.07373520	     -5.57949352	     36.09755969	     -0.69300176	      1.00176603	      0.45398333	     -8.30077561	     11.05085804	    -10.65598157	    -10.73512193	     14.71433940	      0.30729652	     26.35376845	     -7.01293970	    -16.01501935	    -28.22559521	      9.31758490	      0.32286708	    -16.93511645	      7.11506731	      9.35825955
      1.06000000	      5.15485896	     -5.66620137	     36.39697700	     -0.68741390	      1.00043657	      0.45001032	     -8.81796579	     11.24932273	    -10.84117594	    -10.58363305	     14.87204765	      0.49959616	     26.50146946	     -6.88421466	    -16.87496665	    -26.50752168	      9.18778473	      0.71382696	    -16.94485911	      7.20838475	      9.53214467
      1.07000000	      5.24141159	     -5.76460038	     36.66412668	     -0.68173380	      0.99904581	      0.44595316	     -9.31598273	     11.44995009	    -10.99313176	    -10.48104007	     15.02110204	      0.73176241	     26.62890061	     -6.78540478	    -17.75771907	    -24.87943436	      9.15968187	      1.07388557	    -16.94435389	      7.30478863	      9.70757493
      1.08000000	      5.33047293	     -5.87231940	     36.89233231	     -0.67596210	      0.99760615	      0.44182283	     -9.78488194	     11.64449695	    -11.10905913	    -10.44534372	     15.17519159	      0.99809656	     26.73537225	     -6.71480380	    -18.64147574	    -23.35650051	      9.21633963	      1.39415389	    -16.93451479	      7.39652694	      9.88849324
      1.09000000	      5.41243781	     -5.98931670	     37.07421291	     -0.67007827	      0.99611913	      0.43761996	    -10.21463912	     11.82466501	    -11.18726669	    -10.48433141	     15.33560326	      1.27512850	     26.82634265	     -6.66899447	    -19.50379412	    -21.95544140	      9.32357313	      1.65210547	    -16.90289255	      7.47558627	     10.08476164
      1.10000000	      5.50169211	     -6.10237054	     37.21611201	     -0.66408666	      0.99463317	      0.43333404	    -10.63642805	     11.98926902	    -11.22612200	    -10.57639180	     15.49233629	      1.59567522	     26.88222115	     -6.64438720	    -20.30455616	    -20.69791134	      9.44641382	      1.88278412	    -16.87720035	      7.54161928	     10.29020716
      1.11000000	      5.58848134	     -6.20943075	     37.31714137	     -0.65795736	      0.99315104	      0.42895496	    -11.03997985	     12.12958709	    -11.22560569	    -10.73275252	     15.63822943	      1.93724353	     26.90637820	     -6.63467090	    -21.01508507	    -19.60219748	      9.55530959	      2.05830297	    -16.84101160	      7.58367993	     10.50190256
      1.12000000	      5.68519815	     -6.29729677	     37.38617009	     -0.65168304	      0.99172138	      0.42445720	    -11.44914074	     12.24336035	    -11.18041924	    -10.94652755	     15.76543924	      2.32598393	     26.87957821	     -6.63538864	    -21.59614921	    -18.69083895	      9.61253636	      2.17165103	    -16.81111823	      7.60197377	     10.70751997
      1.13000000	      5.77251283	     -6.36691196	     37.42029720	     -0.64525828	      0.99034023	      0.41986126	    -11.84686732	     12.32039597	    -11.08856624	    -11.21546472	     15.87538975	      2.71524782	     26.82408096	     -6.64415006	    -22.05127474	    -17.99364174	      9.58933405	      2.16866255	    -16.77355991	      7.58181274	     10.89570728
      1.14000000	      5.84219743	     -6.40896258	     37.41404757	     -0.63866664	      0.98904181	      0.41516670	    -12.23719991	     12.34853086	    -10.93280381	    -11.53142765	     15.96043800	      3.09441472	     26.73810992	     -6.65542973	    -22.38527735	    -17.52574456	      9.42551830	      2.03367758	    -16.72344772	      7.50775295	     11.08247621
      1.15000000	      5.92554373	     -6.40481973	     37.40626188	     -0.63194363	      0.98789472	      0.41030376	    -12.66274053	     12.33581105	    -10.76778337	    -11.87943132	     15.99876609	      3.57397741	     26.59737542	     -6.66174318	    -22.55847249	    -17.31094567	      9.12164810	      1.68834007	    -16.69766428	      7.39725029	     11.23479396
